<?xml version="1.0" encoding="UTF-8"?>
<svg width="256px" height="256px" version="1.1" viewBox="-18.5 -43.144 147 147" xmlns="http://www.w3.org/2000/svg">
    <path
        d="m121.86-23.327c-0.62703-0.01927-1.3271 0.01304-2.1076 0.10725-8.6313 1.0419-10.506 0.44219-19.34 1.3672-1.8403 0.19271-6.5167 0.44487-9.5446 1.1789-1.5913 0.38579-3.3161 0.77662-4.8229 1.6332-1.1809 0.0012-2.3282-0.0075-3.4696 0.01221-6.7596 0.11654-8.2929 1.0061-12.158 2.4145-9.1389 3.3303-15.588 12.38-5.9015 28.577 9.6865 16.197 11.863 18.415 16.182 25.597 4.3187 7.1813 3.9202 19.071-9.8114 19.2-4.7047 0.04419-19.753 0.05396-36.39 0.05493l22.635-46.414-29.914 0.07586c-0.16176-0.24847-0.32643-0.49095-0.49528-0.71937-1.7928-2.4255-4.6254-3.0378-7.1257-3.644-3.0279-0.73403-7.7042-0.9862-9.5446-1.1789-8.8342-0.92506-10.708-0.32532-19.339-1.3672-0.78043-0.094206-1.4814-0.12652-2.1084-0.10725-4.3891 0.13489-5.1792 2.8139-4.5909 4.7278 0 0 13.261 3.5707 17.997 4.9249 7.5399 2.1563 10.658 4.6018 10.832 7.6036 0.51416 8.8245 0.74166 3.8734-13.817 19.809 0.59763 1.3705 2.3483 2.6996 3.3362 1.6698 15.501-12.943 21.903-12.61 24.942-15.024-8.8132 18.104-17.319 36.361-26.202 54.431 27.352 0.0042 54.703 0.0034 82.055 0.0043 0 0 6.8268 0.18145 10.258-0.78477 10.075-2.8372 18.496-8.0483 18.918-18.33 0.0913-2.2216 0.12897-3.9404 0.0367-5.0574-0.0922-1.117-1.7722-8.8472-4.032-12.654-5.7401-9.6697-10.623-17.592-20.831-33.754-2.7965-4.4276-3.4433-7.5488-2.8461-9.7521 3.5171 1.6872 10.095 2.9888 23.443 14.134 0.98788 1.0298 2.7385-0.29932 3.3361-1.6698-14.559-15.936-14.331-10.985-13.817-19.809 0.17489-3.0018 3.2926-5.4473 10.832-7.6036 4.7353-1.3542 17.997-4.9249 17.997-4.9249 0.58823-1.914-0.20178-4.5929-4.5909-4.7278zm3.5725 7.5356-4.8229 1.628s0.98555-0.05724 2.4677 4.3197c1.4821 4.377 2.3552 9.004 2.3552 9.004s0.89028-2.9188 0.84407-8.6822c-0.0462-5.7634-0.84407-6.2695-0.84407-6.2695zm-8.2078 1.2626-4.8229 1.628s0.98554-0.05725 2.4677 4.3197c1.4821 4.377 2.3552 9.004 2.3552 9.004s0.89026-2.9179 0.84405-8.6813c-0.0461-5.7634-0.84405-6.2703-0.84405-6.2703zm-16.144 13.48s6.9943 4.9649 13.104 10.738c4.138 3.9102 5.0787 5.8899 5.2562 6.763-0.0425-1.0166-0.35386-3.2516-2.118-5.7175-2.3996-3.3541-4.291-4.8595-4.291-4.8595s2.3665 0.48115 7.526 3.7957c5.1595 3.3145 5.1673 5.5109 5.1673 5.5109s-0.0863-6.5035-9.603-10.982c-9.5168-4.4789-15.041-5.2484-15.041-5.2484zm18.36 17.501c0.0153 0.36614-8.7e-4 0.58335-8.7e-4 0.58335s0.0861-0.16735 8.7e-4 -0.58335zm-134.41-5.4568s-0.79873 0.50608-0.84494 6.2695c-0.04622 5.7634 0.84494 8.6822 0.84494 8.6822s0.87306-4.627 2.3552-9.004c1.4821-4.377 2.4668-4.3197 2.4668-4.3197zm8.207 1.2626s-0.79698 0.50695-0.8432 6.2703c-0.046213 5.7634 0.8432 8.6813 0.8432 8.6813s0.87306-4.627 2.3552-9.004c1.4821-4.377 2.4677-4.3197 2.4677-4.3197zm16.144 13.48s-5.5247 0.76947-15.041 5.2484c-9.5168 4.4789-9.603 10.982-9.603 10.982s0.0087-2.1963 5.1682-5.5108c5.1595-3.3145 7.526-3.7957 7.526-3.7957s-1.8914 1.5054-4.291 4.8595c-1.7642 2.4659-2.0755 4.701-2.118 5.7175 0.17757-0.87306 1.1173-2.8528 5.2554-6.763 6.1097-5.7734 13.104-10.738 13.104-10.738zm-18.359 17.501c-0.085103 0.416 8.72e-4 0.58335 8.72e-4 0.58335s-0.01615-0.2172-8.72e-4 -0.58335z"
        fill="#00923f" stroke-width="1.1075" style="paint-order:markers stroke fill" />
</svg>