<?xml version="1.0" encoding="UTF-8"?>
<svg width="16px" height="16px" version="1.1" viewBox="-18.5 -43.144 147 147" xmlns="http://www.w3.org/2000/svg">
    <path
        d="m110.71-25.153c-1.9095-0.05868-4.0416 0.03972-6.4183 0.32662-26.285 3.173-31.995 1.3462-58.898 4.1634-5.6045 0.58686-19.846 1.3552-29.067 3.5906-7.6143 1.846-16.241 3.7107-21.7 11.097-6.386 8.6393-11.32 22.252-9.5331 34.253 5.1973 34.901 15.706 7.7408 83.721 64.533 3.0085 3.1362 8.3398-0.91155 10.16-5.0852-44.337-48.531-43.644-33.453-42.078-60.327 0.5326-9.1416 10.027-16.589 32.989-23.156 14.421-4.1241 54.806-14.998 54.806-14.998 1.7914-5.8287-0.6145-13.987-13.981-14.398zm10.879 22.949-14.687 4.9578s3.0013-0.17434 7.5149 13.155c4.5136 13.329 7.1724 27.42 7.1724 27.42s2.7112-8.8888 2.5705-26.44c-0.14074-17.552-2.5705-19.093-2.5705-19.093zm-24.996 3.8451-14.687 4.9578s3.0014-0.1743 7.515 13.155c4.5136 13.329 7.1724 27.42 7.1724 27.42s2.7112-8.8862 2.5705-26.438c-0.14074-17.552-2.5705-19.095-2.5705-19.095zm-49.163 41.051s21.3 15.12 39.906 32.702c12.602 11.908 15.466 17.937 16.007 20.596-0.12958-3.0958-1.0776-9.9023-6.4501-17.412-7.3075-10.214-13.068-14.799-13.068-14.799s7.2069 1.4653 22.919 11.559c15.712 10.094 15.736 16.783 15.736 16.783s-0.26263-19.806-29.245-33.446c-28.982-13.64-45.807-15.983-45.807-15.983zm55.913 53.298c0.0465 1.115-4e-3 1.7765-4e-3 1.7765s0.26301-0.50965 4e-3 -1.7765z"
        fill="#00923f" stroke-width="2.4985" style="paint-order:markers stroke fill" />
</svg>