<?xml version="1.0" encoding="UTF-8" standalone="no"?>
<!DOCTYPE svg PUBLIC "-//W3C//DTD SVG 1.1//EN"
 "http://www.w3.org/Graphics/SVG/1.1/DTD/svg11.dtd">
<!-- Generated by graphviz version 2.43.0 (0)
 -->
<!-- Title: %3 Pages: 1 -->
<svg width="626pt" height="184pt"
 viewBox="0.00 0.00 626.00 184.00" xmlns="http://www.w3.org/2000/svg" xmlns:xlink="http://www.w3.org/1999/xlink">
<g id="graph0" class="graph" transform="scale(1 1) rotate(0) translate(4 180)">
<title>%3</title>
<polygon fill="#000000" fill-opacity="0.188235" stroke="transparent" points="-4,4 -4,-180 622,-180 622,4 -4,4"/>
<!-- invisnode1 -->
<!-- invisnode2 -->
<!-- invisnode1&#45;&gt;invisnode2 -->
<!-- GitHub -->
<g id="node5" class="node">
<title>GitHub</title>
<path fill="#cb181d" stroke="#67000d" d="M392.5,-172.73C392.5,-174.53 378.61,-176 361.5,-176 344.39,-176 330.5,-174.53 330.5,-172.73 330.5,-172.73 330.5,-143.27 330.5,-143.27 330.5,-141.47 344.39,-140 361.5,-140 378.61,-140 392.5,-141.47 392.5,-143.27 392.5,-143.27 392.5,-172.73 392.5,-172.73"/>
<path fill="none" stroke="#67000d" d="M392.5,-172.73C392.5,-170.92 378.61,-169.45 361.5,-169.45 344.39,-169.45 330.5,-170.92 330.5,-172.73"/>
<text text-anchor="middle" x="361.5" y="-154.9" font-family="monospace" font-size="12.00" fill="#fff5f0">GitHub</text>
</g>
<!-- invisnode2&#45;&gt;GitHub -->
<!-- invisnode3 -->
<!-- invisnode4 -->
<!-- invisnode3&#45;&gt;invisnode4 -->
<!-- Calendar -->
<g id="node12" class="node">
<title>Calendar</title>
<polygon fill="#fb6a4a" stroke="#67000d" points="415,-36 308,-36 308,0 415,0 415,-36"/>
<text text-anchor="middle" x="361.5" y="-14.9" font-family="monospace" font-size="12.00" fill="#fee0d2">Current date</text>
</g>
<!-- invisnode4&#45;&gt;Calendar -->
<!-- qdra_xml -->
<g id="node6" class="node">
<title>qdra_xml</title>
<polygon fill="#fc9272" stroke="#67000d" points="400,-106 323,-106 323,-70 400,-70 400,-106"/>
<text text-anchor="middle" x="361.5" y="-84.9" font-family="monospace" font-size="12.00" fill="#67000d">qdra xml</text>
</g>
<!-- GitHub&#45;&gt;qdra_xml -->
<g id="edge3" class="edge">
<title>GitHub:s&#45;&gt;qdra_xml:n</title>
<path fill="none" stroke="#a50f15" d="M361.5,-116.07C361.5,-123.92 361.5,-128.9 361.5,-140"/>
<polygon fill="#a50f15" stroke="#a50f15" points="365,-116 361.5,-106 358,-116 365,-116"/>
</g>
<!-- form -->
<g id="node9" class="node">
<title>form</title>
<polygon fill="#fff5f0" stroke="#67000d" points="499,-106 451,-106 451,-70 505,-70 505,-100 499,-106"/>
<polyline fill="none" stroke="#67000d" points="499,-106 499,-100 "/>
<polyline fill="none" stroke="#67000d" points="505,-100 499,-100 "/>
<text text-anchor="middle" x="478" y="-84.9" font-family="monospace" font-size="12.00" fill="#67000d">KEDU</text>
</g>
<!-- qdra_xml&#45;&gt;form -->
<g id="edge6" class="edge">
<title>qdra_xml&#45;&gt;form</title>
<path fill="none" stroke="#a50f15" d="M400.31,-88C413.23,-88 427.66,-88 440.48,-88"/>
<polygon fill="#a50f15" stroke="#a50f15" points="440.81,-91.5 450.81,-88 440.81,-84.5 440.81,-91.5"/>
</g>
<!-- qdra_payer -->
<g id="node7" class="node">
<title>qdra_payer</title>
<polygon fill="#fc9272" stroke="#67000d" points="99.5,-133 7.5,-133 7.5,-97 99.5,-97 99.5,-133"/>
<text text-anchor="middle" x="53.5" y="-111.9" font-family="monospace" font-size="12.00" fill="#67000d">qdra payer</text>
</g>
<!-- config_yaml -->
<g id="node8" class="node">
<title>config_yaml</title>
<polygon fill="#fff5f0" stroke="#67000d" points="266,-106 143,-106 143,-70 272,-70 272,-100 266,-106"/>
<polyline fill="none" stroke="#67000d" points="266,-106 266,-100 "/>
<polyline fill="none" stroke="#67000d" points="272,-100 266,-100 "/>
<text text-anchor="middle" x="207.5" y="-84.9" font-family="monospace" font-size="12.00" fill="#67000d">.quick_dra.yaml</text>
</g>
<!-- qdra_payer&#45;&gt;config_yaml -->
<g id="edge4" class="edge">
<title>qdra_payer:s&#45;&gt;config_yaml</title>
<path fill="none" stroke="#a50f15" d="M53.5,-96C53.5,-91.65 93.45,-89.66 132.52,-88.75"/>
<polygon fill="#a50f15" stroke="#a50f15" points="133.02,-92.24 142.94,-88.53 132.87,-85.24 133.02,-92.24"/>
</g>
<!-- config_yaml&#45;&gt;qdra_xml -->
<g id="edge5" class="edge">
<title>config_yaml&#45;&gt;qdra_xml</title>
<path fill="none" stroke="#a50f15" d="M272.08,-88C285.69,-88 299.84,-88 312.74,-88"/>
<polygon fill="#a50f15" stroke="#a50f15" points="312.77,-91.5 322.77,-88 312.77,-84.5 312.77,-91.5"/>
</g>
<!-- ePlatnik -->
<g id="node10" class="node">
<title>ePlatnik</title>
<path fill="#cb181d" stroke="#67000d" d="M618,-102.73C618,-104.53 600.74,-106 579.5,-106 558.26,-106 541,-104.53 541,-102.73 541,-102.73 541,-73.27 541,-73.27 541,-71.47 558.26,-70 579.5,-70 600.74,-70 618,-71.47 618,-73.27 618,-73.27 618,-102.73 618,-102.73"/>
<path fill="none" stroke="#67000d" d="M618,-102.73C618,-100.92 600.74,-99.45 579.5,-99.45 558.26,-99.45 541,-100.92 541,-102.73"/>
<text text-anchor="middle" x="579.5" y="-84.9" font-family="monospace" font-size="12.00" fill="#fff5f0">ePłatnik</text>
</g>
<!-- form&#45;&gt;ePlatnik -->
<g id="edge7" class="edge">
<title>form&#45;&gt;ePlatnik</title>
<path fill="none" stroke="#a50f15" d="M505.14,-88C513.01,-88 521.89,-88 530.7,-88"/>
<polygon fill="#a50f15" stroke="#a50f15" points="530.93,-91.5 540.93,-88 530.93,-84.5 530.93,-91.5"/>
</g>
<!-- qdra_insured -->
<g id="node11" class="node">
<title>qdra_insured</title>
<polygon fill="#fc9272" stroke="#67000d" points="107,-79 0,-79 0,-43 107,-43 107,-79"/>
<text text-anchor="middle" x="53.5" y="-57.9" font-family="monospace" font-size="12.00" fill="#67000d">qdra insured</text>
</g>
<!-- qdra_insured&#45;&gt;config_yaml -->
<g id="edge8" class="edge">
<title>qdra_insured:n&#45;&gt;config_yaml</title>
<path fill="none" stroke="#a50f15" d="M53.5,-80C53.5,-84.35 93.45,-86.34 132.52,-87.25"/>
<polygon fill="#a50f15" stroke="#a50f15" points="132.87,-90.76 142.94,-87.47 133.02,-83.76 132.87,-90.76"/>
</g>
<!-- Calendar&#45;&gt;qdra_xml -->
<g id="edge11" class="edge">
<title>Calendar:n&#45;&gt;qdra_xml:s</title>
<path fill="none" stroke="#a50f15" d="M361.5,-59.93C361.5,-52.08 361.5,-47.1 361.5,-36"/>
<polygon fill="#a50f15" stroke="#a50f15" points="358,-60 361.5,-70 365,-60 358,-60"/>
</g>
</g>
</svg>
